<?xml version="1.0" ?><svg viewBox="0 0 64 64" xmlns="http://www.w3.org/2000/svg"><title/><g data-name="Day 9" id="a4488486-4018-4446-b5d9-b88ae615c0f5"><path d="M20,18H6V4A14,14,0,0,1,20,18Z" data-name="&lt;Path&gt;" fill="#f26f49" id="85762e17-1464-4fcc-bac8-0d6ccd8494d1"/><path d="M19.42,18H6V8a14,14,0,0,1,9.9,4.1A14.13,14.13,0,0,1,19.42,18Z" data-name="&lt;Path&gt;" fill="#f28649" id="b9c36cf0-1aae-40c5-a178-6fd0da3431d2"/><path d="M6,4H6A14,14,0,0,1,20,18v0a0,0,0,0,1,0,0H6a0,0,0,0,1,0,0V4A0,0,0,0,1,6,4Z" data-name="&lt;Rectangle&gt;" fill="none" id="e4d9b52a-4b89-4d6b-a437-8d56b177e329" stroke="#001c63" stroke-linecap="round" stroke-linejoin="round" stroke-width="2"/><path d="M42,4V18H28A14,14,0,0,1,42,4Z" data-name="&lt;Path&gt;" fill="#f26f49" id="16636096-bcf7-4dfd-acab-55b3a4d96b4a"/><path d="M42,8V18H28.58A14,14,0,0,1,42,8Z" data-name="&lt;Path&gt;" fill="#f28649" id="2bf2a10a-c7d7-40f9-a18c-263b1fd2622a"/><path d="M28,4H42a0,0,0,0,1,0,0V4A14,14,0,0,1,28,18h0a0,0,0,0,1,0,0V4A0,0,0,0,1,28,4Z" data-name="&lt;Rectangle&gt;" fill="none" id="af76ca66-00f4-4556-a15e-ee04c2a35b82" stroke="#001c63" stroke-linecap="round" stroke-linejoin="round" stroke-width="2" transform="translate(70 22) rotate(-180)"/><path d="M23,21h7.47A16.53,16.53,0,0,1,47,37.53V45a0,0,0,0,1,0,0H23a0,0,0,0,1,0,0V21A0,0,0,0,1,23,21Z" data-name="&lt;Rectangle&gt;" fill="#f26f49" id="b175f594-27a4-4ffd-9271-5d0737b1417b"/><path d="M23,21h7.47A16.53,16.53,0,0,1,47,37.53V45a0,0,0,0,1,0,0H23a0,0,0,0,1,0,0V21A0,0,0,0,1,23,21Z" data-name="&lt;Rectangle&gt;" fill="none" id="21f59970-858e-45bc-a947-cc9e84225e55" stroke="#001c63" stroke-linecap="round" stroke-linejoin="round" stroke-width="2"/><path d="M57,40.42A28,28,0,0,1,28.07,60.94,28,28,0,0,1,12.58,11.09,27.47,27.47,0,0,1,16,8.76V38H37l.44.54a12.54,12.54,0,0,0,18.35,1.14.72.72,0,0,1,.5-.21A.75.75,0,0,1,57,40.42Z" data-name="&lt;Path&gt;" fill="#f27449" id="64d122e1-76e1-4ede-840b-32e3d3511e91"/><path d="M57,40.42a27.77,27.77,0,0,1-5.08,10A28,28,0,0,1,12.58,11.09,27.47,27.47,0,0,1,16,8.76V38H37l.44.54A12.14,12.14,0,0,0,40,40.88a12.54,12.54,0,0,0,15.82-1.2.72.72,0,0,1,.5-.21A.75.75,0,0,1,57,40.42Z" data-name="&lt;Path&gt;" fill="#f28649" id="b5a10689-0ddd-442b-b270-3281f39e6ec5"/><path d="M40,40.88A19,19,0,0,1,27,47s0,0,0,0l-1,0c-4.23,0-14.77-10.14-15-14,0-.34,0-.68,0-1a18.87,18.87,0,0,1,5-12.83V38H37l.44.54A12.14,12.14,0,0,0,40,40.88Z" data-name="&lt;Path&gt;" fill="#f27449" id="4a529d20-1cdc-467d-a20a-50922b689b3b"/><path d="M55.07,45.48A28,28,0,1,1,16,8.76V38H37l.32.37a11.35,11.35,0,0,0,13.54,2.84h0A3.17,3.17,0,0,1,55.07,45.48Z" data-name="&lt;Path&gt;" fill="none" id="21be48e7-c3e9-4334-86b6-e48c8b0eea3d" stroke="#001c63" stroke-linecap="round" stroke-linejoin="round" stroke-width="2"/><path d="M43,24c0,.34,0,.68,0,1A19,19,0,0,1,25,43s0,0,0,0l-1,0A19,19,0,0,1,5,25c0-.34,0-.68,0-1a19,19,0,0,1,38,0Z" data-name="&lt;Path&gt;" fill="#f26f49" id="845bbd71-4490-4ee1-85b0-68d37ff649f2"/><path d="M43,24c0,.34,0,.68,0,1A19,19,0,0,1,25,43s0,0,0,0l-1,0a18.9,18.9,0,0,1-11.28-3.71A18.93,18.93,0,0,1,9,29c0-.34,0-.68,0-1A19,19,0,0,1,39.28,12.72,18.86,18.86,0,0,1,43,24Z" data-name="&lt;Path&gt;" fill="#f28649" id="4471ddf4-38b2-4d51-89af-0dc90ef6b1b0"/><path d="M62,49s-4.12-6.87-11,2l-8-2c-.53-.15,1-7,1-7s5.37-2,9-2C56.88,40,62,42.38,62,49Z" data-name="&lt;Path&gt;" fill="#fff" id="78f80a2a-d3d7-4aec-b5c9-a9fb01e3a2ab" stroke="#001c63" stroke-linecap="round" stroke-linejoin="round" stroke-width="2"/><g data-name="&lt;Group&gt;" id="e1994be0-3482-4547-9fd2-96b53300041d"><path d="M42.9,26A19,19,0,0,1,25,43c0-.17,0-.34,0-.51C25.37,27,41.48,26.06,42.9,26Z" data-name="&lt;Path&gt;" fill="#fff" id="208cc0d2-f45b-4ca4-88a0-16ee5cc6b1fc"/><path d="M5.1,26c1.53.06,19.51,1,19.91,16.47,0,.16,0,.33,0,.5h0l-1,0A19,19,0,0,1,5.1,26Z" data-name="&lt;Path&gt;" fill="#fff" id="6cb99d26-7904-4680-9069-6575fbc1c7cd"/></g><g data-name="&lt;Group&gt;" id="8de22baf-3c2f-4b14-8b05-2d08a5163df8"><path d="M5.1,26c0-.32-.06-.65-.08-1s0-.68,0-1a19,19,0,0,1,38,0c0,.34,0,.68,0,1s0,.66-.08,1A19,19,0,0,1,25,43h0l-1,0A19,19,0,0,1,5.1,26Z" data-name="&lt;Path&gt;" fill="none" id="2dc8d197-46b2-4c35-8d31-5f46cd9d5c7a" stroke="#001c63" stroke-linecap="round" stroke-linejoin="round" stroke-width="2"/><path d="M5,26h.1c1.53.06,19.51,1,19.91,16.47,0,.17,0,.34,0,.51" data-name="&lt;Path&gt;" fill="none" id="d05a4f47-7586-485b-9b64-df57e884ae5e" stroke="#001c63" stroke-linecap="round" stroke-linejoin="round" stroke-width="2"/><path d="M43,26h-.1c-1.42,0-17.53,1-17.89,16.46,0,.16,0,.33,0,.5h0" data-name="&lt;Path&gt;" fill="none" id="33698a27-ef06-46f4-acdb-13e279601a29" stroke="#001c63" stroke-linecap="round" stroke-linejoin="round" stroke-width="2"/></g><circle cx="25" cy="45.5" data-name="&lt;Path&gt;" fill="#001c63" id="4ff8e226-8d84-4a2c-a339-3977a523fbb2" r="2"/><path d="M16,33a2,2,0,0,0-2,2h4A2,2,0,0,0,16,33Z" data-name="&lt;Path&gt;" fill="#001c63" id="d5e0f53c-f99e-4b42-8048-7b5059514864"/><path d="M33,33a2,2,0,0,0-2,2h4A2,2,0,0,0,33,33Z" data-name="&lt;Path&gt;" fill="#001c63" id="de08aa8d-2943-42c7-b61f-a255e0614e40"/><path d="M12,17a16.68,16.68,0,0,1,8-6.33" data-name="&lt;Path&gt;" fill="none" id="b353c62b-397f-410f-b977-728213bbd560" stroke="#fff" stroke-linecap="round" stroke-linejoin="round" stroke-width="2"/><circle cx="23" cy="10" data-name="&lt;Path&gt;" fill="#fff" id="994dd223-f342-4e19-a20b-528aaf24b3df" r="1"/></g></svg>